<svg width="274" height="177" viewBox="0 0 274 177" fill="none" xmlns="http://www.w3.org/2000/svg">
<g clip-path="url(#clip0_2_123)">
<path d="M92.641 102.339C92.7994 102.393 92.4875 102.288 92.641 102.339V102.339ZM115.939 102.561C128.753 124.047 113.582 145.937 104.152 151.412L101.686 153.024L98.9129 151.3C86.6047 143.242 76.2486 132.152 68.9224 119.182L66.4462 130.788L56.5455 127.456L59.0217 115.851C47.5202 122.489 34.1414 125.6 20.277 124.861L17.1889 124.613L15.6949 121.668C9.6801 110.444 5.10941 83.5988 25.1729 72.2736C21.6451 67.8358 19.0463 62.7439 17.5692 57.3759C16.0921 52.0079 15.7748 46.5016 16.6409 41.2659C18.6399 31.1904 23.0868 22.0672 29.5878 14.7041C32.0795 12.1804 35.4898 10.797 39.1756 10.8148C42.8615 10.8327 46.5681 12.2505 49.5965 14.8009C61.2189 25.5424 70.829 38.4073 77.8251 52.5903C89.5309 44.7004 102.976 39.5933 117.318 37.5886C120.954 37.2821 124.727 38.3811 127.926 40.6786C131.124 42.9762 133.526 46.3135 134.68 50.0618C137.395 60.5268 137.627 71.2304 135.354 81.2227C134.042 86.2466 131.616 90.7724 128.254 94.4677C124.892 98.1631 120.679 100.934 115.925 102.578L115.939 102.561ZM64.7033 89.2225C58.2241 89.6002 51.589 88.6306 45.1818 86.3697C40.939 85.05 36.8781 82.9639 33.1989 80.2141C19.162 86.3207 18.4471 102.776 23.2137 114.578C40.7384 114.705 61.2505 105.404 63.2839 95.8746L64.7033 89.2225ZM70.8573 60.3801C64.3774 46.2432 55.1549 33.3788 43.8218 22.6684C42.8277 21.8031 41.6014 21.3085 40.3732 21.2774C39.145 21.2463 37.9993 21.6809 37.1513 22.4995C31.8956 28.5641 28.2638 36.0052 26.5555 44.2093C25.6423 50.8254 27.2666 57.8435 31.0965 63.8299C34.9264 69.8164 40.6729 74.3192 47.1618 76.4184C53.7543 79.07 60.7605 79.5458 67.1456 77.7757L70.8573 60.3801ZM110.287 124.252C110.92 120.964 110.835 117.491 110.036 114.072C109.238 110.653 107.746 107.37 105.662 104.449C101.319 104.5 96.9147 103.79 92.6339 102.348C86.1885 100.279 80.0604 96.9505 74.604 92.554L73.1868 99.1962C71.1534 108.726 85.2146 129.66 100.406 140.521C105.25 136.367 108.677 130.726 110.285 124.261L110.287 124.252ZM125.563 77.5247C127.357 69.3505 127.179 60.627 125.045 52.0753C124.637 50.8351 123.818 49.7405 122.743 48.9967C121.668 48.2528 120.411 47.9108 119.206 48.0348C105.119 50.1919 92.0021 55.5431 80.7559 63.7215L77.0464 81.1072C81.8701 86.648 88.1252 90.6344 94.8883 92.4781C101.349 94.8215 108.157 94.5723 113.879 91.7831C119.601 88.9939 123.789 83.8823 125.563 77.5247V77.5247ZM80.555 39.7962C83.1854 40.6813 85.9312 40.4847 88.1883 39.2495C90.4454 38.0143 92.0289 35.8418 92.5904 33.2099C93.152 30.5779 92.6456 27.7022 91.1827 25.2153C89.7198 22.7283 87.4202 20.8339 84.7898 19.9488C82.1593 19.0637 79.4135 19.2603 77.1565 20.4955C74.8994 21.7307 73.3159 23.9032 72.7543 26.5351C72.1927 29.1671 72.6991 32.0428 74.162 34.5297C75.6249 37.0167 77.9245 38.9111 80.555 39.7962V39.7962Z" fill="url(#paint0_linear_2_123)"/>
</g>
<g clip-path="url(#clip1_2_123)">
<path d="M224.884 89.3855C224.74 89.4698 225.032 89.2984 224.884 89.3855V89.3855ZM242.845 70.7484C263.658 76.8641 263.241 105.879 258.82 117.685L257.756 120.911L254.749 121.829C241.196 125.591 227.586 125.455 215.335 121.434L219.378 132.323L210.089 137.763L206.045 126.874C200.633 141.244 191.977 154.427 180.977 165.052L178.485 167.354L175.833 166.304C165.48 162.562 148.238 145.687 157.811 120.815C152.837 120.264 148.24 118.461 144.361 115.541C140.482 112.621 137.42 108.659 135.404 103.949C131.778 94.6173 130.515 84.0389 131.726 73.1507C132.343 69.2061 134.247 65.3935 137.08 62.4319C139.913 59.4703 143.478 57.5643 147.103 57.0734C161.504 55.92 175.451 58.0177 188.07 63.235C192.999 47.7418 200.684 32.9767 210.644 19.8639C213.273 16.6934 216.726 14.4897 220.352 13.6681C223.978 12.8464 227.527 13.4636 230.329 15.4034C237.766 21.2283 243.422 29.241 246.795 38.7305C248.361 43.6381 248.819 49.0634 248.135 54.6081C247.451 60.1528 245.643 65.6761 242.842 70.7724L242.845 70.7484ZM196.768 101.889C191.998 107.409 186.419 112.022 180.354 115.462C176.428 117.876 172.249 119.556 168.023 120.419C160.396 136.428 168.271 149.611 177.964 154.804C191.453 140.755 202.406 117.072 199.086 108.131L196.768 101.889ZM186.719 74.827C174.52 69.2282 160.87 66.8181 146.706 67.7617C145.502 67.9014 144.309 68.5124 143.353 69.48C142.396 70.4476 141.741 71.7053 141.51 73.017C140.588 81.9053 141.615 90.5371 144.505 98.2008C147.192 104.006 152.029 108.071 158.027 109.565C164.025 111.06 170.732 109.87 176.777 106.241C183.184 102.95 188.795 97.6591 192.78 91.1489L186.719 74.827ZM249.617 91.9267C248.419 88.8969 246.576 86.3053 244.214 84.3309C241.853 82.3564 239.029 81.0461 235.938 80.4903C232.637 84.0355 228.9 87.0467 224.882 89.3975C218.886 93.0158 212.488 95.4126 206.058 96.4492L208.372 102.681C211.692 111.623 233.179 116.309 250.376 112.366C251.96 105.274 251.698 98.1861 249.62 91.936L249.617 91.9267ZM237.402 43.801C234.592 36.091 229.991 29.5516 223.979 24.7235C223.031 24.1033 221.844 23.9254 220.64 24.2233C219.436 24.5212 218.297 25.2744 217.438 26.3417C207.75 39.3658 200.442 54.0531 196.013 69.3963L202.07 85.7089C208.601 86.0596 215.433 84.0641 221.558 80.0171C227.706 76.5969 232.794 70.9103 235.75 64.1551C238.705 57.3998 239.297 50.1029 237.402 43.801ZM183.612 51.2306C186.081 49.7853 188.083 47.4182 189.18 44.65C190.277 41.8819 190.378 38.9394 189.461 36.4699C188.544 34.0004 186.684 32.2062 184.291 31.482C181.897 30.7578 179.166 31.1629 176.698 32.6082C174.23 34.0535 172.227 36.4206 171.13 39.1888C170.033 41.9569 169.932 44.8994 170.849 47.3689C171.766 49.8384 173.626 51.6326 176.02 52.3568C178.413 53.081 181.144 52.6759 183.612 51.2306Z" fill="url(#paint1_linear_2_123)"/>
</g>
<defs>
<linearGradient id="paint0_linear_2_123" x1="84.8067" y1="19.9545" x2="46.2943" y2="134.406" gradientUnits="userSpaceOnUse">
<stop stop-color="#FF8C00"/>
<stop offset="1" stop-color="#FFA300"/>
</linearGradient>
<linearGradient id="paint1_linear_2_123" x1="176.714" y1="32.5989" x2="235.927" y2="133.716" gradientUnits="userSpaceOnUse">
<stop stop-color="#0C9200"/>
<stop offset="1" stop-color="#0FB600"/>
</linearGradient>
<clipPath id="clip0_2_123">
<rect width="125.355" height="121.552" fill="white" transform="matrix(0.947781 0.318923 -0.20867 0.977986 25.3643 0.0697784)"/>
</clipPath>
<clipPath id="clip1_2_123">
<rect width="129.183" height="118.98" fill="white" transform="matrix(0.862928 -0.505327 0.348096 0.937459 121 65.3495)"/>
</clipPath>
</defs>
</svg>
